{
  "accessors": [
    {
      "bufferView": 2,
      "componentType": 5126,
      "count": 2033,
      "max": [
        7.4418954849243164,
        12.328927040100098,
        3.8729169368743896
      ],
      "min": [
        -7.4212908744812012,
        -6.2993016242980957,
        -8.1289024353027344
      ],
      "type": "VEC3"
    },
    {
      "bufferView": 2,
      "byteOffset": 24396,
      "componentType": 5126,
      "count": 2033,
      "max": [
        0.9998745322227478,
        0.99953484535217285,
        0.99938607215881348
      ],
      "min": [
        -0.99973398447036743,
        -0.93323016166687012,
        -0.99997484683990479
      ],
      "type": "VEC3"
    },
    {
      "bufferView": 3,
      "componentType": 5126,
      "count": 2033,
      "max": [
        0.9984775185585022,
        0.99990898370742798,
        0.99589496850967407,
        1
      ],
      "min": [
        -0.99990350008010864,
        -0.99922341108322144,
        -0.99923765659332275,
        -1
      ],
      "type": "VEC4"
    },
    {
      "bufferView": 1,
      "componentType": 5126,
      "count": 2033,
      "max": [
        0.98798239231109619,
        0.99367302656173706
      ],
      "min": [
        0.0054588904604315758,
        0.025214860215783119
      ],
      "type": "VEC2"
    },
    {
      "bufferView": 0,
      "componentType": 5125,
      "count": 9927,
      "max": [
        2032
      ],
      "min": [
        0
      ],
      "type": "SCALAR"
    }
  ],
  "asset": {
    "extras": {
      "author": "Aliosa (https://sketchfab.com/aliosa123)",
      "license": "CC-BY-4.0 (http://creativecommons.org/licenses/by/4.0/)",
      "source": "https://sketchfab.com/3d-models/photo-scanned-realistic-cracked-tree-trunk-b0edfdc157e94ea093ee959c65db38de",
      "title": "Photo-scanned Realistic Cracked Tree Trunk"
    },
    "generator": "Sketchfab-9.4.0",
    "version": "2.0"
  },
  "bufferViews": [
    {
      "buffer": 0,
      "byteLength": 39708,
      "byteOffset": 0,
      "name": "floatBufferViews",
      "target": 34963
    },
    {
      "buffer": 0,
      "byteLength": 16264,
      "byteOffset": 39708,
      "byteStride": 8,
      "name": "floatBufferViews",
      "target": 34962
    },
    {
      "buffer": 0,
      "byteLength": 48792,
      "byteOffset": 55972,
      "byteStride": 12,
      "name": "floatBufferViews",
      "target": 34962
    },
    {
      "buffer": 0,
      "byteLength": 32528,
      "byteOffset": 104764,
      "byteStride": 16,
      "name": "floatBufferViews",
      "target": 34962
    }
  ],
  "buffers": [
    {
      "byteLength": 137292,
      "uri": "scene.bin"
    }
  ],
  "images": [
    {
      "uri": "textures/Scene_-_Root_baseColor.png"
    },
    {
      "uri": "textures/Scene_-_Root_metallicRoughness.png"
    },
    {
      "uri": "textures/Scene_-_Root_normal.png"
    }
  ],
  "materials": [
    {
      "doubleSided": true,
      "name": "Scene_-_Root",
      "normalTexture": {
        "index": 2,
        "scale": 1,
        "texCoord": 0
      },
      "occlusionTexture": {
        "index": 1,
        "strength": 1,
        "texCoord": 0
      },
      "pbrMetallicRoughness": {
        "baseColorFactor": [
          1,
          1,
          1,
          1
        ],
        "baseColorTexture": {
          "index": 0,
          "texCoord": 0
        },
        "metallicFactor": 0,
        "metallicRoughnessTexture": {
          "index": 1,
          "texCoord": 0
        },
        "roughnessFactor": 1
      }
    }
  ],
  "meshes": [
    {
      "name": "crackedTreeLow__0",
      "primitives": [
        {
          "attributes": {
            "NORMAL": 1,
            "POSITION": 0,
            "TANGENT": 2,
            "TEXCOORD_0": 3
          },
          "indices": 4,
          "material": 0,
          "mode": 4
        }
      ]
    }
  ],
  "nodes": [
    {
      "children": [
        1
      ],
      "name": "RootNode (gltf orientation matrix)",
      "rotation": [
        -0.70710678118654746,
        -0,
        -0,
        0.70710678118654757
      ]
    },
    {
      "children": [
        2
      ],
      "name": "RootNode (model correction matrix)"
    },
    {
      "children": [
        3
      ],
      "matrix": [
        1,
        0,
        0,
        0,
        0,
        0,
        1,
        0,
        0,
        -1,
        0,
        0,
        0,
        0,
        0,
        1
      ],
      "name": "6479d200f63247f493b9039e911194f7.fbx"
    },
    {
      "children": [
        4
      ],
      "name": "RootNode"
    },
    {
      "children": [
        5
      ],
      "matrix": [
        0.0099999997764825821,
        0,
        0,
        0,
        0,
        2.2204459996194763e-18,
        -0.0099999997764825821,
        0,
        0,
        0.0099999997764825821,
        2.2204459996194763e-18,
        0,
        0,
        0,
        0,
        1
      ],
      "name": "crackedTreeLow"
    },
    {
      "children": [
        6
      ],
      "matrix": [
        18.863439641082731,
        0.88473570638491061,
        -0.09788503522279117,
        0,
        0.071518633775333545,
        0.56353521395921502,
        18.87588999506719,
        0,
        0.88725626477054498,
        -18.855272286866075,
        0.55955796252963608,
        0,
        -6.4282336235046387,
        -23.365627288818359,
        96.406204223632812,
        1
      ],
      "name": ""
    },
    {
      "mesh": 0,
      "name": "crackedTreeLow__0"
    }
  ],
  "samplers": [
    {
      "magFilter": 9729,
      "minFilter": 9987,
      "wrapS": 10497,
      "wrapT": 10497
    }
  ],
  "scene": 0,
  "scenes": [
    {
      "name": "OSG_Scene",
      "nodes": [
        0
      ]
    }
  ],
  "textures": [
    {
      "sampler": 0,
      "source": 0
    },
    {
      "sampler": 0,
      "source": 1
    },
    {
      "sampler": 0,
      "source": 2
    }
  ]
}

