{
  "accessors": [
    {
      "bufferView": 2,
      "componentType": 5126,
      "count": 44266,
      "max": [
        25.930849075317383,
        84.509735107421875,
        15.202427864074707
      ],
      "min": [
        -34.366134643554688,
        0.019922733306884766,
        -27.597442626953125
      ],
      "type": "VEC3"
    },
    {
      "bufferView": 2,
      "byteOffset": 531192,
      "componentType": 5126,
      "count": 44266,
      "max": [
        0.9999319314956665,
        0.99985939264297485,
        0.99985891580581665
      ],
      "min": [
        -0.99996691942214966,
        -0.99938946962356567,
        -0.99999773502349854
      ],
      "type": "VEC3"
    },
    {
      "bufferView": 1,
      "componentType": 5126,
      "count": 44266,
      "max": [
        0.98925328254699707,
        0.99659669399261475
      ],
      "min": [
        0.0062264204025268555,
        0.0033826231956481934
      ],
      "type": "VEC2"
    },
    {
      "bufferView": 1,
      "byteOffset": 354128,
      "componentType": 5126,
      "count": 44266,
      "max": [
        0.98925328254699707,
        0.99659669399261475
      ],
      "min": [
        0.0062264204025268555,
        0.0033826231956481934
      ],
      "type": "VEC2"
    },
    {
      "bufferView": 1,
      "byteOffset": 708256,
      "componentType": 5126,
      "count": 44266,
      "max": [
        0.98925328254699707,
        0.99659669399261475
      ],
      "min": [
        0.0062264204025268555,
        0.0033826231956481934
      ],
      "type": "VEC2"
    },
    {
      "bufferView": 0,
      "componentType": 5125,
      "count": 219810,
      "max": [
        44265
      ],
      "min": [
        0
      ],
      "type": "SCALAR"
    }
  ],
  "asset": {
    "extras": {
      "author": "16874uy (https://sketchfab.com/16874uy)",
      "license": "CC-BY-4.0 (http://creativecommons.org/licenses/by/4.0/)",
      "source": "https://sketchfab.com/3d-models/flower-99237f1d475244c9aed11c9979251ced",
      "title": "Flower"
    },
    "generator": "Sketchfab-8.87.0",
    "version": "2.0"
  },
  "bufferViews": [
    {
      "buffer": 0,
      "byteLength": 879240,
      "byteOffset": 0,
      "name": "floatBufferViews",
      "target": 34963
    },
    {
      "buffer": 0,
      "byteLength": 1062384,
      "byteOffset": 879240,
      "byteStride": 8,
      "name": "floatBufferViews",
      "target": 34962
    },
    {
      "buffer": 0,
      "byteLength": 1062384,
      "byteOffset": 1941624,
      "byteStride": 12,
      "name": "floatBufferViews",
      "target": 34962
    }
  ],
  "buffers": [
    {
      "byteLength": 3004008,
      "uri": "scene.bin"
    }
  ],
  "extensionsRequired": [
    "KHR_materials_pbrSpecularGlossiness"
  ],
  "extensionsUsed": [
    "KHR_materials_pbrSpecularGlossiness"
  ],
  "images": [
    {
      "uri": "textures/material_diffuse.png"
    },
    {
      "uri": "textures/material_specularGlossiness.png"
    }
  ],
  "materials": [
    {
      "doubleSided": true,
      "emissiveFactor": [
        0,
        0,
        0
      ],
      "extensions": {
        "KHR_materials_pbrSpecularGlossiness": {
          "diffuseFactor": [
            1,
            1,
            1,
            1
          ],
          "diffuseTexture": {
            "index": 0,
            "texCoord": 0
          },
          "glossinessFactor": 1,
          "specularFactor": [
            1,
            1,
            1
          ],
          "specularGlossinessTexture": {
            "index": 1,
            "texCoord": 0
          }
        }
      },
      "name": "material"
    }
  ],
  "meshes": [
    {
      "primitives": [
        {
          "attributes": {
            "NORMAL": 1,
            "POSITION": 0,
            "TEXCOORD_0": 2,
            "TEXCOORD_1": 3,
            "TEXCOORD_2": 4
          },
          "indices": 5,
          "material": 0,
          "mode": 4
        }
      ]
    }
  ],
  "nodes": [
    {
      "children": [
        1
      ],
      "name": "RootNode (gltf orientation matrix)",
      "rotation": [
        -0.70710678118654746,
        -0,
        -0,
        0.70710678118654757
      ]
    },
    {
      "children": [
        2
      ],
      "name": "RootNode (model correction matrix)"
    },
    {
      "children": [
        3
      ],
      "name": "root"
    },
    {
      "children": [
        4
      ],
      "matrix": [
        1,
        0,
        0,
        0,
        0,
        2.2204460492503131e-16,
        1,
        0,
        0,
        -1,
        2.2204460492503131e-16,
        0,
        0,
        0,
        0,
        1
      ],
      "name": "GLTF_SceneRootNode"
    },
    {
      "children": [
        5
      ],
      "name": "root_0"
    },
    {
      "children": [
        6
      ],
      "matrix": [
        -0.0060599022544920444,
        0,
        4.5149790156573388e-11,
        0,
        0,
        0.0060599022544920444,
        0,
        0,
        -4.5149790156573388e-11,
        0,
        -0.0060599022544920444,
        0,
        -0.025558514520525932,
        -0.25612074136734009,
        0.21844321489334106,
        1
      ],
      "name": "node_id38_1"
    },
    {
      "mesh": 0,
      "name": ""
    }
  ],
  "samplers": [
    {
      "magFilter": 9729,
      "minFilter": 9987,
      "wrapS": 10497,
      "wrapT": 10497
    }
  ],
  "scene": 0,
  "scenes": [
    {
      "name": "OSG_Scene",
      "nodes": [
        0
      ]
    }
  ],
  "textures": [
    {
      "sampler": 0,
      "source": 0
    },
    {
      "sampler": 0,
      "source": 1
    }
  ]
}

